<?xml version="1.0" encoding="UTF-8"?>
<svg id="_레이어_2" data-name="레이어_2" xmlns="http://www.w3.org/2000/svg" version="1.1" viewBox="0 0 1400 1400">
  <!-- Generator: Adobe Illustrator 29.3.1, SVG Export Plug-In . SVG Version: 2.1.0 Build 151)  -->
  <defs>
    <style>
      .st0 {
        fill: #fff;
      }
    </style>
  </defs>
  <path d="M1297.9,296.6c-12.7-91.8-87.9-166.6-179.5-179.5-6-.8-12.6-.6-18.4-2.1H300c-106.8,6.2-193.5,93.4-200,200v770c1.6,5.8,1.3,12.3,2.1,18.4,12.7,91.9,87.9,166.5,179.5,179.5,6,.9,12.6.5,18.4,2.1h800l31-4.5c86.5-17.7,154.4-89.6,166.9-177.1.9-6,.5-12.6,2.1-18.4V315c-1.6-5.8-1.3-12.3-2.1-18.4Z"/>
  <g>
    <path class="st0" d="M345.8,994.3l171.3-567.9h160.6l179.9,567.9h-138.4l-41.5-142.9-161.5-.5-43.3,143.4h-127.2ZM658.1,756.1l-62.8-228.6-59.6,228.6h122.3Z"/>
    <rect class="st0" x="925.3" y="585.5" width="125.5" height="408.8"/>
    <circle class="st0" cx="988.3" cy="471.6" r="65.9"/>
  </g>
</svg>