<?xml version="1.0" encoding="UTF-8"?>
<svg xmlns="http://www.w3.org/2000/svg" version="1.1" viewBox="0 0 1400 1400">
  <!-- Generator: Adobe Illustrator 29.3.1, SVG Export Plug-In . SVG Version: 2.1.0 Build 151)  -->
  <g id="_레이어_1" data-name="레이어_1">
    <circle cx="5058.4" cy="3896.5" r="2.2"/>
  </g>
  <g id="_레이어_2" data-name="레이어_2">
    <g>
      <path d="M832.7,425.9c.4-2.9,0-3.6-1.7-5.7-4.7-5.4-17.3-12.4-23.3-17.4-35.7-29.4-74.3-60.2-109.7-89.6-23.6-19.6-51.5-40-27.8-73.7,19.9-28.4,75.8-34.8,103.4-15,35.1,25.3,69.5,55.4,104.3,82.4,7.7,6,20.3,12.4,27.3,19.5,3.7,3.7,1.2,5.6,1.5,5.8.7.5,3.4-1.2,5.1-.8,4.3,1.1,21.7,17.7,26.8,21.5,59.5,44.9,119.4,90,177.8,135.4,21.3,16.6,49.3,34.7,66.5,55.1,3,3.6,8.1,2.3,5,9,5.2-2.8,4.9,2.9,7.1,4.4,17,12.5,33.7,35.8,45.5,54,38.5,59.3,67.6,154.1,57.7,226.9-.4,3.2-3.4,2.2-3.5,3.4-1.2,10.6.4,22.2-2.3,35.2-25.1,121.2-118.6,224.7-229.1,272.7-135,58.7-293.1,49.2-418.1-28.4-72.6-45-136.4-119.8-163.3-203.3-9.4-29.1-19.6-79.5-12.3-109,.3-1.2,7.3-1.7-.8-9.3l-97.7,78.2-9.8,8.3c-13.9,15.5-32.2,26.8-48.2,40-19.3,15.8-39.7,36.7-61.3,51-3.8,2.5-7.1,0-4.4,4.6-27.5,22.4-53.3,38.3-90.7,34.6-53.4-5.2-68.3-57.9-47-102.2,5.4-11.2,33.5-43.5,45.9-48,1.9-.7,4.2,1.2,5,.7s-1.9-2.2.7-4.9c5.1-5.3,37.9-30.6,43.8-33.7s5.6-.5,6.4-1-2-2.8.7-4.9c44.1-33.9,89.1-67.4,132.9-100.3,5.1-3.8,23.3-21.1,27.4-22.1s4.4,1.2,5.1.8-1.8-2.2.6-5c1.9-2.2,16.6-13.9,20-16.5,6.9-5.3,18.5-12,26.3-18,45.5-35.2,91.8-74.3,139.7-108.6,3.6-2.6,7.2.1,4.4-4.6l4.6-2.7c.3-2.4-10.3-2.4-12.2-2.5-75.2-3.7-153.9,6.5-228.7,1.8-22.7-1.4-33.3-4.4-48.5-20.5-.5-.5-2.6.6-3,.3-6.1-5.5-11-24.8-10.2-33.3,3.1-31.6,44.4-64.9,74.8-64.9h487.5ZM1044.3,594.1c-110.8-81.1-283.8-64.3-369.4,43.5-45.4,57.2-63,135.6-39,206.2,3.8,11,12.3,22.6,12.6,34.2l3.1-1.6c1.8,1.8,1.9,8.7,2.3,9.4,2.6,4.3,15,22.2,18.1,26.3,1.4,1.9,11,8.6,11.8,10.2,1.1,2.2.4,5.6.9,6.5s2.2-1.4,4,0c7,5,16.4,17.7,22.6,22.6,121.9,96.4,325,66.1,399.8-73.6,44.6-83.4,29.1-173-25.4-246.4l-3,1.4c-9.6-12.6-26.1-29.5-38.6-38.7Z"/>
      <path d="M866.9,622c82.4-7.3,170.5,41.2,181,128.8,18.8,158.3-205.2,222.4-295.4,99.8-71.1-96.5,2.9-218.7,114.5-228.6Z"/>
    </g>
  </g>
</svg>