<?xml version="1.0" encoding="UTF-8"?>
<svg xmlns="http://www.w3.org/2000/svg" version="1.1" viewBox="0 0 1400 1400">
  <!-- Generator: Adobe Illustrator 29.3.1, SVG Export Plug-In . SVG Version: 2.1.0 Build 151)  -->
  <defs>
    <style>
      .st0 {
        fill: #fff;
      }
    </style>
  </defs>
  <g id="_레이어_1" data-name="레이어_1">
    <circle cx="5058.4" cy="3896.5" r="2.2"/>
  </g>
  <g id="_레이어_2" data-name="레이어_2">
    <g>
      <path d="M754.4,120.9l104.2,21.2c193,53.9,347,209.4,400.1,402.6l20.4,101.2v104.2l-20.4,105.1c-53,193.4-207,348.5-400.1,402.6l-104.2,21.2h-108l-101.1-20.4c-194-53.3-350.3-209.1-403.1-403.4l-20.4-101.2c1.9-34-2.5-70.5,0-104.2,20.7-273.8,254.9-508.2,528.5-528.9h104.2ZM803.4,1100.3c52.3-44.8-1.8-107.1-29.5-147.4,123.5-69.5,277.8-94,331.7-243.1,83-229.3-157.9-423.4-372.3-407.3-81.2,6.1-270,85-347.3,123.4-190.4,94.6-101,329.9,92.7,343.6,105.8,7.5,229.9-79.1,327.2-116.4,56.6-57.3-8.3-125.4-76.2-111-66.8,16.4-151,76.6-214.4,90.4-25.7,5.6-53.4,3.5-71.6-17.2-19.4-22.1-17.4-53.3,6.2-71.4,26-19.9,127.3-57.1,163.7-71.7,81.2-32.6,141.2-66.5,231.7-34.8,108.4,37.9,177.1,163.6,96.3,262.7-20.8,25.5-48.9,39.1-77.7,53.5-98.7,49-206.2,88.4-306.1,135.7-.9,5.2,2.4,8.6,4.5,12.8,15.3,29.5,108.2,171.9,128.6,191.8,28.7,28,81.5,33.2,112.6,6.5Z"/>
      <path class="st0" d="M803.4,1100.3c-31.1,26.6-83.9,21.5-112.6-6.5-20.3-19.8-113.3-162.2-128.6-191.8-2.1-4.1-5.4-7.6-4.5-12.8,99.9-47.3,207.4-86.7,306.1-135.7,28.9-14.3,57-28,77.7-53.5,80.8-99.1,12.1-224.8-96.3-262.7-90.4-31.6-150.5,2.2-231.7,34.8-36.4,14.6-137.7,51.8-163.7,71.7-23.6,18.1-25.6,49.3-6.2,71.4,18.2,20.7,45.9,22.8,71.6,17.2,63.4-13.9,147.6-74,214.4-90.4,68-14.4,132.8,53.7,76.2,111-97.3,37.2-221.4,123.8-327.2,116.4-193.7-13.7-283.1-248.9-92.7-343.6,77.4-38.4,266.1-117.3,347.3-123.4,214.4-16.1,455.3,178,372.3,407.3-54,149.1-208.3,173.6-331.7,243.1,27.8,40.3,81.9,102.6,29.5,147.4Z"/>
    </g>
  </g>
</svg>