<?xml version="1.0" encoding="UTF-8"?>
<svg id="_레이어_2" data-name="레이어_2" xmlns="http://www.w3.org/2000/svg" version="1.1" viewBox="0 0 1400 1400">
  <!-- Generator: Adobe Illustrator 29.3.1, SVG Export Plug-In . SVG Version: 2.1.0 Build 151)  -->
  <path d="M737.1,869.4v219.8c0,89.2-85.6,177.9-168.8,198.8-246.2,62-387.8-257.5-182.9-401.3-130.9-86.8-130.8-283.6,0-370.3-174-121.2-103.2-390.2,107.8-409,135.3,8.6,284.3-11.3,418,.4,58.2,5.1,119.3,39.2,154.6,85.1,80.2,104.4,54.4,248.8-51.7,323.5,110,74.1,132.2,228.6,45.2,330.3-81.8,95.6-226.7,102.1-322.3,22.7ZM662.5,182.1h-177.2c-11.7,0-44.5,15-55.4,21.9-98.4,62.4-90.3,211.7,15.4,260.5,5.9,2.7,33.1,13.3,37.3,13.3h179.8V182.1ZM737.1,480.5c57-10,125.1,4.9,181.3-3.9,106.4-16.6,156.1-150.7,91.5-235.7-17.7-23.3-65.8-58.8-95.7-58.8h-177.2v298.4ZM662.5,552.4h-171.8c-69,0-132.1,84.7-131.6,150.2.5,67,64.1,148.1,134.3,148.1h169.2v-298.4ZM1038.5,701.6c0-83.1-67.4-150.5-150.5-150.5s-150.5,67.4-150.5,150.5,67.4,150.5,150.5,150.5,150.5-67.4,150.5-150.5ZM662.5,925.4h-179.8c-28.2,0-78,37.6-94.1,60.4-99.4,140.4,77.1,309,215.1,204.4,24.6-18.7,58.8-66.6,58.8-98.3v-166.5Z"/>
</svg>