<?xml version="1.0" encoding="UTF-8"?>
<svg xmlns="http://www.w3.org/2000/svg" version="1.1" viewBox="0 0 1400 1400">
  <!-- Generator: Adobe Illustrator 29.3.1, SVG Export Plug-In . SVG Version: 2.1.0 Build 151)  -->
  <defs>
    <style>
      .st0 {
        fill: #fff;
      }

      .st1 {
        display: none;
      }
    </style>
  </defs>
  <g id="_레이어_1" data-name="레이어_1">
    <circle class="st1" cx="5058.4" cy="3896.5" r="2.2"/>
  </g>
  <g id="_레이어_2" data-name="레이어_2">
    <g>
      <path d="M1297.9,296.6c-12.7-91.8-87.9-166.6-179.5-179.5-6-.8-12.6-.6-18.4-2.1H300c-106.8,6.2-193.5,93.4-200,200v770c1.6,5.8,1.3,12.3,2.1,18.4,12.7,91.9,87.9,166.5,179.5,179.5,6,.9,12.6.5,18.4,2.1h800l31-4.5c86.5-17.7,154.4-89.6,166.9-177.1.9-6,.5-12.6,2.1-18.4V315c-1.6-5.8-1.3-12.3-2.1-18.4Z"/>
      <g>
        <path class="st0" d="M999.7,411.2l2.3,567.4h-107.5l-4.6-54.9c-3-3.5-13.7,14.7-16,17.2-75.9,83.1-204.7,51.2-253-44.6-82.4-163.6,46.8-394.6,237.7-292.6l19.8,17.9v-210.5h121.3ZM791,672.7c-89.4,12.2-96.8,194.9-6.8,216.1,45.9,10.9,84-16.6,91.8-62.5,10.8-63.3,4.7-165.9-85-153.6Z"/>
        <rect class="st0" x="398" y="438.7" width="121.3" height="540"/>
      </g>
    </g>
  </g>
</svg>