<?xml version="1.0" encoding="UTF-8"?>
<svg xmlns="http://www.w3.org/2000/svg" version="1.1" viewBox="0 0 1400 1400">
  <!-- Generator: Adobe Illustrator 29.3.1, SVG Export Plug-In . SVG Version: 2.1.0 Build 151)  -->
  <defs>
    <style>
      .st0 {
        fill: #fff;
      }

      .st1 {
        display: none;
      }
    </style>
  </defs>
  <g id="_레이어_1" data-name="레이어_1">
    <circle class="st1" cx="5058.4" cy="3896.5" r="2.2"/>
  </g>
  <g id="_레이어_2" data-name="레이어_2">
    <g>
      <path d="M1100,115c5.8,1.6,12.3,1.3,18.4,2.1,91.6,12.9,166.8,87.7,179.5,179.5.8,6,.6,12.6,2.1,18.4v770c-1.6,5.8-1.3,12.4-2.1,18.4-12.5,87.5-80.4,159.5-166.9,177.1l-31,4.5H300c-5.8-1.6-12.4-1.3-18.4-2.1-91.6-13-166.8-87.7-179.5-179.5-.8-6-.6-12.6-2.1-18.4V315c6.5-106.6,93.2-193.8,200-200h800ZM478,938.5v-163c5.6-3.7,14.3-.6,20.5-.5,111.1,2.9,230.1-21.9,247.4-151.7,17.1-128.1-68.5-203.9-190.4-210.4-52.8-2.8-114,.2-166.9,3-6.9.4-19.3-3.4-18.6,6.4l.3,514.8c1,4,3.6,4.4,7.2,4.8,29.8,2.7,63.8-2.1,94.1,0,1.8.2,6.1-2.1,6.5-3.5ZM1069.8,648.8c1.1-1.6,1.1-3.4,1.3-5.2,2.3-27-1.6-57.4-.3-84.8-1.5-6.6-17.5-10.7-23.6-12.4-35.1-9.9-89.5-12.2-125.6-7.2-70.2,9.8-123.8,58.9-118.6,133.4,3.9,56.9,53.6,89.4,101,110,20.7,9,46.8,15.8,65.3,28.7,27.5,19.1,14.6,43.6-15,48.7-41.2,7.1-94.8-4.7-132.3-22.4-5.3-2.5-18.9-13.9-20.1-4,2.1,28.3-2.7,60.3,0,88.1.7,7,6.5,8.9,12.4,11.6,71.1,32.2,215.1,30.3,260.5-44.9,37.5-62.2,15-127.4-45.1-162.5s-81-30.3-109-51c-19.1-14.1-20.3-37.6,4.3-45.3,32.6-10.2,90,.9,121.7,13.3,5.4,2.1,18.2,10.8,23.1,5.9Z"/>
      <path class="st0" d="M478,938.5c-.4,1.5-4.7,3.8-6.5,3.5-30.3-2.1-64.2,2.7-94.1,0-3.6-.3-6.2-.8-7.2-4.8l-.3-514.8c-.7-9.8,11.7-6,18.6-6.4,52.9-2.8,114.2-5.8,166.9-3,121.9,6.5,207.4,82.2,190.4,210.4-17.3,129.8-136.3,154.5-247.4,151.7-6.1-.2-14.8-3.2-20.5.5v163ZM479,680c60.6,4.4,155.1,3.1,160-77.5,2.8-44.5-17.1-74.3-59.8-86.3-24.8-7-67.7-7.2-93.8-5.3s-4.3.9-6.5,1v168Z"/>
      <path class="st0" d="M1069.8,648.8c-4.9,4.9-17.7-3.8-23.1-5.9-31.7-12.4-89.1-23.6-121.7-13.3-24.6,7.7-23.5,31.2-4.3,45.3,28,20.7,75.9,31.7,109,51,60.1,35,82.6,100.3,45.1,162.5-45.3,75.2-189.4,77.1-260.5,44.9-5.9-2.7-11.7-4.6-12.4-11.6-2.6-27.8,2.1-59.8,0-88.1,1.2-9.9,14.8,1.5,20.1,4,37.5,17.7,91.2,29.5,132.3,22.4,29.6-5.1,42.5-29.6,15-48.7-18.5-12.9-44.6-19.7-65.3-28.7-47.4-20.6-97.1-53.1-101-110-5.1-74.4,48.5-123.6,118.6-133.4,36.1-5,90.4-2.7,125.6,7.2s22.1,5.8,23.6,12.4c-1.4,27.4,2.5,57.8.3,84.8-.2,1.8-.1,3.7-1.3,5.2Z"/>
      <path d="M479,680v-168c2.2-.1,4.2-.9,6.5-1,26.1-1.9,69-1.6,93.8,5.3,42.8,12,62.6,41.8,59.8,86.3-5,80.5-99.4,81.9-160,77.5Z"/>
    </g>
  </g>
</svg>