<?xml version="1.0" encoding="UTF-8"?>
<svg xmlns="http://www.w3.org/2000/svg" version="1.1" viewBox="0 0 1400 1400">
  <!-- Generator: Adobe Illustrator 29.3.1, SVG Export Plug-In . SVG Version: 2.1.0 Build 151)  -->
  <defs>
    <style>
      .st0 {
        fill: #fff;
      }
    </style>
  </defs>
  <g id="_레이어_1" data-name="레이어_1">
    <circle cx="5058.4" cy="3896.5" r="2.2"/>
  </g>
  <g id="_레이어_2" data-name="레이어_2">
    <g>
      <path d="M1279.1,700h0c0,319.8-259.3,579.1-579.1,579.1h0c-319.8,0-579.1-259.3-579.1-579.1h0c0-319.8,259.3-579.1,579.1-579.1h0c319.8,0,579.1,259.3,579.1,579.1ZM602.3,584.2c-1.5,50.1,63.7,76.3,106.6,79.7,133.6,10.6,294.3-56,344.9-187.4,71.8-186.4-122-231.5-264.1-209.9-140.7,21.4-470.4,189-458.8,359,6.8,99.9,159.5,178.6,228,235.3-62.3,34.7-175.1,93-187.3,171-18.9,121.1,96.4,126.5,176.2,78.5,83.9-50.5,107.2-145.4,83.6-236.6,60.6-17.5,169.2-3.3,196,62.5,9.2,22.7,9.4,43.6-6.3,63.8-10,12.9-28.7,14-26.9,29.1,72.1-9.3,80.9-88.5,41.3-140.8-44.2-58.5-119.9-65-187.4-57.8-9,1-37.6,10.2-42.2,8.5-73-78.9-235.3-136.9-170.6-271.9,50.1-104.4,258.3-209.9,369.1-228,68.6-11.2,211.5-17.5,199.3,87.1-15,129.1-260,245.6-367.7,180.3-12.6-7.6-18.5-23.3-33.6-22.5Z"/>
      <path class="st0" d="M602.3,584.2c15.1-.8,21,14.8,33.6,22.5,107.7,65.3,352.7-51.2,367.7-180.3,12.2-104.6-130.7-98.3-199.3-87.1-110.8,18.1-319,123.6-369.1,228-64.7,135,97.6,193,170.6,271.9,4.6,1.7,33.2-7.5,42.2-8.5,67.5-7.2,143.2-.7,187.4,57.8,39.6,52.3,30.8,131.5-41.3,140.8-1.8-15.2,16.9-16.2,26.9-29.1,15.7-20.2,15.5-41.1,6.3-63.8-26.8-65.8-135.4-79.9-196-62.5,23.5,91.2.2,186.1-83.6,236.6-79.7,48-195.1,42.6-176.2-78.5,12.2-78,125-136.2,187.3-171-68.5-56.7-221.2-135.5-228-235.3-11.5-170,318.1-337.6,458.8-359,142.2-21.6,335.9,23.5,264.1,209.9-50.6,131.4-211.3,197.9-344.9,187.4-42.9-3.4-108.1-29.7-106.6-79.7ZM579.3,895.8c-7.8.8-63.1,38.9-72.8,46.7-30.2,24.6-75.8,74.2-66.3,116.7,9.9,44,84.9,1.5,104.3-17.2,23.4-22.5,45.6-69.1,47-101.6.4-8.6-1.6-45.7-12.2-44.7Z"/>
      <path d="M579.3,895.8c10.6-1.1,12.6,36.1,12.2,44.7-1.4,32.5-23.6,79.1-47,101.6-19.4,18.7-94.4,61.2-104.3,17.2-9.6-42.6,36-92.2,66.3-116.7,9.7-7.9,65-46,72.8-46.7Z"/>
    </g>
  </g>
</svg>