<?xml version="1.0" encoding="UTF-8"?>
<svg xmlns="http://www.w3.org/2000/svg" version="1.1" viewBox="0 0 1920 211.4">
  <!-- Generator: Adobe Illustrator 29.3.1, SVG Export Plug-In . SVG Version: 2.1.0 Build 151)  -->
  <defs>
    <style>
      .st0 {
        fill: #ffeff7;
      }
    </style>
  </defs>
  <g id="_레이어_1" data-name="레이어_1">
    <circle cx="3026.1" cy="589.2" r="2.2"/>
  </g>
  <g id="_레이어_2" data-name="레이어_2">
    <circle class="st0" cx="23.8" cy="64" r="80.8"/>
    <circle class="st0" cx="182.5" cy="93.8" r="80.8"/>
    <circle class="st0" cx="340.1" cy="64" r="80.8" transform="translate(54.4 259.2) rotate(-45)"/>
    <circle class="st0" cx="498.5" cy="93.8" r="80.8"/>
    <circle class="st0" cx="657.4" cy="64" r="80.8" transform="translate(147.3 483.6) rotate(-45)"/>
    <circle class="st0" cx="815.7" cy="93.8" r="80.8"/>
    <circle class="st0" cx="974.1" cy="64" r="80.8" transform="translate(240.1 707.5) rotate(-45)"/>
    <circle class="st0" cx="1133" cy="93.8" r="80.8"/>
    <circle class="st0" cx="1289.9" cy="64" r="80.8" transform="translate(332.6 930.8) rotate(-45)"/>
    <circle class="st0" cx="1447.7" cy="93.8" r="80.8"/>
    <circle class="st0" cx="1605.9" cy="64" r="80.8" transform="translate(425.1 1154.3) rotate(-45)"/>
    <circle class="st0" cx="1922.2" cy="64" r="80.8" transform="translate(517.8 1377.9) rotate(-45)"/>
    <circle class="st0" cx="1764.2" cy="93.8" r="80.8"/>
    <rect class="st0" x="-49" y="-154" width="2053.3" height="228.3"/>
  </g>
</svg>